<?xml version="1.0" encoding="utf-8"?>
<svg xmlns="http://www.w3.org/2000/svg" height="400" width="400" viewBox="0 0 400 400">
  <g>
    <path id="path1" transform="rotate(0,200,200) translate(0,12.4999165534973) scale(12.5,12.5)  " fill="#C5C5C5" d="M27,22.000013C25.346001,22.000013 24,23.345991 24,25.000013 24,26.654005 25.346001,28.000013 27,28.000013 28.653999,28.000013 30,26.654005 30,25.000013 30,23.345991 28.653999,22.000013 27,22.000013z M5,22C3.3460007,22 2,23.346 2,25 2,26.654 3.3460007,28 5,28 6.6540003,28 8,26.654 8,25 8,23.346 6.6540003,22 5,22z M16,2C14.346,2 13,3.3460007 13,5 13,6.6540003 14.346,8 16,8 17.654,8 19,6.6540003 19,5 19,3.3460007 17.654,2 16,2z M16,0C18.757,0 21,2.243 21,5 21,6.2061872 20.570676,7.3139925 19.856814,8.178627L19.749571,8.3023939 26.702677,20.009615 26.74309,20.006532C26.828189,20.002204 26.913844,20.000013 27,20.000013 29.757004,20.000013 32,22.242994 32,25.000013 32,27.757002 29.757004,30.000013 27,30.000013 24.242996,30.000013 22,27.757002 22,25.000013 22,23.104563 23.060166,21.452075 24.618662,20.604373L24.703606,20.560808 18.143555,9.5162544 17.944359,9.6064529C17.346375,9.8598127 16.68925,10 16,10 15.224594,10 14.489846,9.8225756 13.834221,9.5061913L13.749143,9.4625559 7.9581623,20.972196 7.9896793,20.994624C9.2092552,21.907268 10,23.363032 10,25 10,27.757 7.757,30 5,30 2.243,30 0,27.757 0,25 0,22.243 2.243,20 5,20 5.3446255,20 5.6812191,20.035047 6.0064049,20.101764L6.1420031,20.133139 12.151809,8.1885796 12.143186,8.178627C11.429324,7.3139925 11,6.2061872 11,5 11,2.243 13.243,0 16,0z" />
  </g>
</svg>