<?xml version="1.0" encoding="utf-8"?>
<svg xmlns="http://www.w3.org/2000/svg" height="400" width="400" viewBox="0 0 400 400">
  <g>
    <path id="path1" transform="rotate(0,200,200) translate(0,15.0000196695304) scale(12.4999985098841,12.4999985098841)  " fill="#03A2F0" d="M27.899996,21.39999C30.199982,21.39999 32.000002,23.200008 32.000002,25.499996 32.000002,27.799982 30.199982,29.6 27.899996,29.6 25.599979,29.6 23.799992,27.799982 23.799992,25.499996 23.799992,23.299984 25.599979,21.39999 27.899996,21.39999z M16.500008,21.39999C18.799994,21.39999 20.599981,23.200008 20.599981,25.499996 20.599981,27.799982 18.799994,29.6 16.500008,29.6 14.19999,29.6 12.400003,27.799982 12.400003,25.499996 12.400003,23.299984 14.19999,21.39999 16.500008,21.39999z M4.1000042,21.39999C6.4000063,21.39999 8.2000084,23.200008 8.2000084,25.499996 8.2000084,27.799982 6.4000063,29.6 4.1000042,29.6 1.8000022,29.6 0,27.799982 0,25.499996 0,23.299984 1.8000022,21.39999 4.1000042,21.39999z M15.299995,10.600004L15.400002,10.600004 17.799995,10.600004 17.799995,12.499998 26.79999,12.499998 28.599977,12.499998 29.199984,12.499998 29.199984,18.600002 26.79999,18.600002 26.79999,14.899991 17.799995,14.899991 17.799995,18.600002 15.400002,18.600002 15.400002,14.899991 5.4000068,14.899991 5.4000068,18.600002 2.9999988,18.600002 2.9999988,12.499998 4.6000037,12.499998 5.4000068,12.499998 15.299995,12.499998z M16.500008,0C18.799994,9.4951247E-09 20.599981,1.7999875 20.599981,4.1000055 20.599981,6.3999928 18.799994,8.2000111 16.500008,8.2000111 14.19999,8.2000111 12.400003,6.3999928 12.400003,4.1000055 12.400003,1.7999875 14.19999,9.4951247E-09 16.500008,0z" />
  </g>
</svg>

