<?xml version="1.0" encoding="UTF-8" standalone="no"?>
<svg
   data-name="Layer 1"
   viewBox="0 0 24 24"
   version="1.1"
   id="svg4"
   sodipodi:docname="component.svg"
   inkscape:version="1.1 (c68e22c387, 2021-05-23)"
   xmlns:inkscape="http://www.inkscape.org/namespaces/inkscape"
   xmlns:sodipodi="http://sodipodi.sourceforge.net/DTD/sodipodi-0.dtd"
   xmlns="http://www.w3.org/2000/svg"
   xmlns:svg="http://www.w3.org/2000/svg">
  <defs
     id="defs8" />
  <sodipodi:namedview
     id="namedview6"
     pagecolor="#ffffff"
     bordercolor="#666666"
     borderopacity="1.0"
     inkscape:pageshadow="2"
     inkscape:pageopacity="0.0"
     inkscape:pagecheckerboard="0"
     showgrid="false"
     inkscape:zoom="36.375"
     inkscape:cx="6.5841924"
     inkscape:cy="12"
     inkscape:window-width="1920"
     inkscape:window-height="1057"
     inkscape:window-x="2040"
     inkscape:window-y="-8"
     inkscape:window-maximized="1"
     inkscape:current-layer="svg4" />
  <path
     d="M21.49,4.73,17,2.17a1,1,0,0,0-1,0L12,4.45,8,2.17a1,1,0,0,0-1,0L2.51,4.73A1,1,0,0,0,2,5.6v5.12a1,1,0,0,0,.51.87l4,2.27V18.4a1,1,0,0,0,.51.87l4.5,2.56a1,1,0,0,0,1,0L17,19.27a1,1,0,0,0,.51-.87V13.86l4-2.27a1,1,0,0,0,.51-.87V5.6A1,1,0,0,0,21.49,4.73ZM4,10.14v-4l3.5-2,3.5,2v4l-3.5,2Zm11.5,7.68-3.5,2-3.5-2v-4l3.5-2,3.5,2ZM20,10.14l-3.5,2-3.5-2v-4l3.5-2,3.5,2Z"
     id="path2"
     style="fill:#2a7fff;fill-opacity:1" />
</svg>
